<?xml version="1.0" standalone="no"?>
<!DOCTYPE svg PUBLIC "-//W3C//DTD SVG 20010904//EN"
 "http://www.w3.org/TR/2001/REC-SVG-20010904/DTD/svg10.dtd">
<svg version="1.0" xmlns="http://www.w3.org/2000/svg"
 width="512.000000pt" height="512.000000pt" viewBox="0 0 512.000000 512.000000"
 preserveAspectRatio="xMidYMid meet">
<metadata>
Created by potrace 1.11, written by Peter Selinger 2001-2013
</metadata>
<g transform="translate(0.000000,512.000000) scale(0.100000,-0.100000)"
fill="#000000" stroke="none">
<path d="M0 2560 l0 -2560 2560 0 2560 0 0 2560 0 2560 -2560 0 -2560 0 0
-2560z m3869 1394 c148 -32 279 -102 382 -206 67 -69 103 -122 149 -221 53
-116 71 -193 77 -341 9 -193 -16 -305 -108 -492 -61 -124 -136 -239 -581 -891
-255 -373 -357 -514 -377 -523 -15 -6 -66 -10 -118 -8 l-90 3 364 510 c353
494 540 758 579 820 16 25 9 22 -51 -25 -79 -60 -198 -120 -295 -146 -102 -28
-339 -26 -445 4 -124 36 -227 95 -316 183 -65 64 -84 91 -127 180 -55 115 -70
165 -82 287 -59 563 452 989 1039 866z m-1939 -889 l0 -885 245 0 245 0 0 -58
c0 -32 -5 -63 -12 -70 -9 -9 -77 -12 -245 -12 l-233 0 0 -385 0 -385 -80 0
-80 0 0 385 0 385 -650 0 -650 0 -14 23 c-8 12 -17 42 -21 67 -7 45 -6 46 92
175 54 72 344 454 643 850 299 396 557 737 574 758 l29 37 79 0 78 0 0 -885z"/>
<path d="M3485 3804 c-229 -55 -403 -227 -461 -454 -24 -92 -21 -261 5 -363
72 -277 295 -437 608 -437 191 1 363 69 487 194 124 124 179 257 179 436 1
126 -17 202 -73 316 -72 148 -227 270 -391 309 -81 19 -273 18 -354 -1z"/>
<path d="M1202 2956 c-315 -419 -572 -766 -572 -769 0 -4 256 -7 570 -7 l570
0 2 768 c2 422 3 768 3 769 -1 1 -258 -341 -573 -761z"/>
</g>
</svg>
